# xmcd
#
# Track frame offsets:
#	150
#	16599
#	32754
#	47807
#	70204
#	86539
#	105910
#	129894
#	144980
#	170361
#	187747
#	203309
#	226620
#
# Disc length: 3393 seconds
#
# Revision: 0
# Processed by: cddbd v1.5PL3 Copyright (c) Steve Scherf et al.
# Submitted via: dBpowerAMP V4.0
#
DISCID=8a0d3f0d
DTITLE=MUKESH - DUM DUM DIGA DIGA
DYEAR=1900
DGENRE=OLDIES
TTITLE0=HAU TUJHSE MOHABBAT
TTITLE1=CHHOTI SI YEH ZINDAGANI
TTITLE2=Track03TERI DUNIA MEIN
TTITLE3=MUJHE MERE HAAL PE
TTITLE4=SAB KUCHH SEEKHA
TTITLE5=HOTHON PE -JIS DESH MEIN GANGA
TTITLE6=RUK JA O JAANE-KANHAIA
TTITLE7=DUM DUM DIGA DIGA
TTITLE8=DUNIA BANANE WALE
TTITLE9=CHHALIA MERA NAAM
TTITLE10=SAJAN RE JHOOTH MAT
TTITLE11=EK DIN BIK JAYEGA
TTITLE12=JANE KAHAN GAYE WOH DIN
EXTD=MUKESH SOLO INDIAN HINDI MOVIE SONGS OF 1960'S
EXTT0=
EXTT1=
EXTT2=
EXTT3=
EXTT4=
EXTT5=
EXTT6=
EXTT7=
EXTT8=
EXTT9=
EXTT10=
EXTT11=
EXTT12=
PLAYORDER=
